{"accessors":[{"bufferView":2,"componentType":5126,"count":70,"max":[1.1122000217437744,2.959929943084717,0.9726799726486206],"min":[0.7809699773788452,2.366189956665039,-0.9726799726486206],"type":"VEC3"},{"bufferView":2,"byteOffset":840,"componentType":5126,"count":70,"max":[0.6503328084945679,0.0671410784125328,0.7925629615783691],"min":[0.6090065836906433,-0.041320811957120895,-0.7925885915756226],"type":"VEC3"},{"bufferView":1,"componentType":5126,"count":70,"max":[0.9907400012016296,0.7860299944877625],"min":[0.9115300178527832,0.6782299876213074],"type":"VEC2"},{"bufferView":0,"componentType":5125,"count":186,"type":"SCALAR"},{"bufferView":2,"byteOffset":1680,"componentType":5126,"count":1753,"max":[2.0312399864196777,3.991219997406006,1.852910041809082],"min":[-1.3936599493026733,0.00015999999595806003,-1.852910041809082],"type":"VEC3"},{"bufferView":2,"byteOffset":22716,"componentType":5126,"count":1753,"max":[0.9994364380836487,0.9999887347221375,0.999731183052063],"min":[-0.9999729990959167,-0.9999740719795227,-0.999731183052063],"type":"VEC3"},{"bufferView":1,"byteOffset":560,"componentType":5126,"count":1753,"max":[0.9929400086402893,0.9886900186538696],"min":[0.009200000204145908,0.006070000119507313],"type":"VEC2"},{"bufferView":0,"byteOffset":744,"componentType":5125,"count":8544,"type":"SCALAR"}],"asset":{"extras":{"author":"Robukan (https://sketchfab.com/robukan)","license":"CC-BY-4.0 (http://creativecommons.org/licenses/by/4.0/)","source":"https://sketchfab.com/3d-models/chocobo-from-world-of-final-fantasy-329f0b6d71f245e89ff6cf8371180025","title":"Chocobo from World of Final Fantasy"},"generator":"Sketchfab-12.68.0","version":"2.0"},"bufferViews":[{"buffer":0,"byteLength":34920,"name":"floatBufferViews","target":34963},{"buffer":0,"byteLength":14584,"byteOffset":34920,"byteStride":8,"name":"floatBufferViews","target":34962},{"buffer":0,"byteLength":43752,"byteOffset":49504,"byteStride":12,"name":"floatBufferViews","target":34962}],"buffers":[{"byteLength":93256,"uri":"data:application/octet-stream;base64,"}],"extensionsUsed":["KHR_materials_unlit"],"images":[{"uri":"data:application/octet-stream;base64,"}],"materials":[{"doubleSided":true,"extensions":{"KHR_materials_unlit":{}},"name":"Material.002","pbrMetallicRoughness":{"baseColorTexture":{"index":0},"metallicFactor":0}},{"doubleSided":true,"extensions":{"KHR_materials_unlit":{}},"name":"Material.003","pbrMetallicRoughness":{"baseColorTexture":{"index":0},"metallicFactor":0}}],"meshes":[{"name":"mo006_02_(LOD:_-1,_VIS:_1,_MAT:_0)_Untitled.002_0","primitives":[{"attributes":{"NORMAL":1,"POSITION":0,"TEXCOORD_0":2},"indices":3,"material":1,"mode":4}]},{"name":"mo006_02_(LOD:_-1,_VIS:_0,_MAT:_0)_Untitled_0","primitives":[{"attributes":{"NORMAL":5,"POSITION":4,"TEXCOORD_0":6},"indices":7,"material":0,"mode":4}]}],"nodes":[{"children":[1],"matrix":[-2.220446049250313e-16,-2.220446049250313e-16,1,0,1,-4.930380657631324e-32,2.220446049250313e-16,0,0,1,2.220446049250313e-16,0,0.31879228353500366,7.078446552434315e-17,-0.3187848925590515,1],"name":"Sketchfab_model"},{"children":[2,4,6],"name":"Root"},{"children":[3],"matrix":[-0.29086000000000006,0.9551700000000001,-0.05519000000000001,0,-0.7711,-0.19988000000000003,0.6045200000000001,0,0.5663900000000001,0.21839000000000003,0.7946700000000001,0,4.076250000000001,1.00545,5.903860000000001,1],"name":"Lamp"},{"name":"Lamp"},{"children":[5],"matrix":[1,0,0,0,0,0,1,0,0,-1,0,0,0,0,0,1],"name":"mo006_02_(LOD:_-1,_VIS:_1,_MAT:_0)_Untitled.002"},{"mesh":0,"name":"mo006_02_(LOD:_-1,_VIS:_1,_MAT:_0)_Untitled.002_0"},{"children":[7],"matrix":[1,0,0,0,0,0,1,0,0,-1,0,0,0,0,0,1],"name":"mo006_02_(LOD:_-1,_VIS:_0,_MAT:_0)_Untitled"},{"mesh":1,"name":"mo006_02_(LOD:_-1,_VIS:_0,_MAT:_0)_Untitled_0"}],"samplers":[{"magFilter":9729,"minFilter":9987,"wrapS":10497,"wrapT":10497}],"scene":0,"scenes":[{"name":"Sketchfab_Scene","nodes":[0]}],"textures":[{"sampler":0,"source":0}]}