{"accessors" : [{"bufferView" : 0, "byteOffset" : 0, "componentType" : 5123, "count" : 96, "type" : "SCALAR", "max" : [77], "min" : [0]}, {"bufferView" : 1, "byteOffset" : 0, "componentType" : 5126, "count" : 78, "type" : "VEC3", "max" : [334.77197265625, 0, 295.7004089355469], "min" : [-334.77197265625, 0, -577.5380859375], "name" : "POSITION"}, {"bufferView" : 1, "byteOffset" : 12, "componentType" : 5126, "count" : 78, "type" : "VEC2", "max" : [1, -0], "min" : [0, -1], "name" : "TEXCOORD_0"}, {"bufferView" : 1, "byteOffset" : 20, "componentType" : 5126, "count" : 78, "type" : "VEC3", "max" : [0, 1.0000044107437134, 0], "min" : [0, 1.0000044107437134, 0], "name" : "NORMAL"}, {"bufferView" : 0, "byteOffset" : 192, "componentType" : 5123, "count" : 1860, "type" : "SCALAR", "max" : [1547], "min" : [0]}, {"bufferView" : 2, "byteOffset" : 0, "componentType" : 5126, "count" : 1548, "type" : "VEC3", "max" : [186.2919158935547, 72.922119140625, 186.9562530517578], "min" : [-155.798095703125, -9.000000318337698E-06, -455.5987548828125], "name" : "POSITION"}, {"bufferView" : 2, "byteOffset" : 12, "componentType" : 5126, "count" : 1548, "type" : "VEC2", "max" : [0.875, -0], "min" : [0.125, -1], "name" : "TEXCOORD_0"}, {"bufferView" : 2, "byteOffset" : 20, "componentType" : 5126, "count" : 1548, "type" : "VEC3", "max" : [1.0000044107437134, 1.0000044107437134, 1.0000044107437134], "min" : [-1.0000044107437134, -1.0000044107437134, -1.0000044107437134], "name" : "NORMAL"}, {"bufferView" : 0, "byteOffset" : 3912, "componentType" : 5123, "count" : 756, "type" : "SCALAR", "max" : [629], "min" : [0]}, {"bufferView" : 3, "byteOffset" : 0, "componentType" : 5126, "count" : 630, "type" : "VEC3", "max" : [-147.94131469726562, 49.27194595336914, 107.64081573486328], "min" : [-152.15928649902344, -1.9999999949504854E-06, 42.36555099487305], "name" : "POSITION"}, {"bufferView" : 3, "byteOffset" : 12, "componentType" : 5126, "count" : 630, "type" : "VEC2", "max" : [0.8749989867210388, -0], "min" : [0.1250009983778, -1], "name" : "TEXCOORD_0"}, {"bufferView" : 3, "byteOffset" : 20, "componentType" : 5126, "count" : 630, "type" : "VEC3", "max" : [1.0000044107437134, 1.0000044107437134, 1.0000044107437134], "min" : [-1.0000044107437134, -1.0000044107437134, -1.0000044107437134], "name" : "NORMAL"}, {"bufferView" : 0, "byteOffset" : 5424, "componentType" : 5123, "count" : 516, "type" : "SCALAR", "max" : [435], "min" : [0]}, {"bufferView" : 4, "byteOffset" : 0, "componentType" : 5126, "count" : 436, "type" : "VEC3", "max" : [-147.94129943847656, 59.09992980957031, 151.63450622558594], "min" : [-200.3987274169922, 47.94966125488281, -151.63450622558594], "name" : "POSITION"}, {"bufferView" : 4, "byteOffset" : 12, "componentType" : 5126, "count" : 436, "type" : "VEC2", "max" : [0.875, -0], "min" : [0.125, -1], "name" : "TEXCOORD_0"}, {"bufferView" : 4, "byteOffset" : 20, "componentType" : 5126, "count" : 436, "type" : "VEC3", "max" : [1.0000044107437134, 1.0000044107437134, 1.0000044107437134], "min" : [-1.0000044107437134, -1.0000044107437134, -1.0000044107437134], "name" : "NORMAL"}, {"bufferView" : 0, "byteOffset" : 6456, "componentType" : 5123, "count" : 72, "type" : "SCALAR", "max" : [65], "min" : [0]}, {"bufferView" : 5, "byteOffset" : 0, "componentType" : 5126, "count" : 66, "type" : "VEC3", "max" : [-175.4385223388672, 51.74600601196289, 109.52584075927734], "min" : [-196.1817626953125, 0.22576099634170532, 108.0772933959961], "name" : "POSITION"}, {"bufferView" : 5, "byteOffset" : 12, "componentType" : 5126, "count" : 66, "type" : "VEC2", "max" : [0.65625, -0.020934000611305237], "min" : [0.34375, -0.979066014289856], "name" : "TEXCOORD_0"}, {"bufferView" : 5, "byteOffset" : 20, "componentType" : 5126, "count" : 66, "type" : "VEC3", "max" : [0.8104754686355591, 0.9358562231063843, 1.0000044107437134], "min" : [-0.8104754686355591, -0.9358562231063843, -1.0000044107437134], "name" : "NORMAL"}, {"bufferView" : 0, "byteOffset" : 6600, "componentType" : 5123, "count" : 72, "type" : "SCALAR", "max" : [65], "min" : [0]}, {"bufferView" : 6, "byteOffset" : 0, "componentType" : 5126, "count" : 66, "type" : "VEC3", "max" : [-175.4385223388672, 51.74600601196289, 48.636131286621094], "min" : [-196.1817626953125, 0.22576099634170532, 47.18758773803711], "name" : "POSITION"}, {"bufferView" : 6, "byteOffset" : 12, "componentType" : 5126, "count" : 66, "type" : "VEC2", "max" : [0.65625, -0.020934000611305237], "min" : [0.34375, -0.979066014289856], "name" : "TEXCOORD_0"}, {"bufferView" : 6, "byteOffset" : 20, "componentType" : 5126, "count" : 66, "type" : "VEC3", "max" : [0.8104754686355591, 0.9358562231063843, 1.0000044107437134], "min" : [-0.8104754686355591, -0.9358562231063843, -1.0000044107437134], "name" : "NORMAL"}, {"bufferView" : 0, "byteOffset" : 6744, "componentType" : 5123, "count" : 72, "type" : "SCALAR", "max" : [65], "min" : [0]}, {"bufferView" : 7, "byteOffset" : 0, "componentType" : 5126, "count" : 66, "type" : "VEC3", "max" : [-175.4385223388672, 51.74600601196289, -9.037331581115723], "min" : [-196.1817626953125, 0.22576099634170532, -10.48587703704834], "name" : "POSITION"}, {"bufferView" : 7, "byteOffset" : 12, "componentType" : 5126, "count" : 66, "type" : "VEC2", "max" : [0.65625, -0.020934000611305237], "min" : [0.34375, -0.979066014289856], "name" : "TEXCOORD_0"}, {"bufferView" : 7, "byteOffset" : 20, "componentType" : 5126, "count" : 66, "type" : "VEC3", "max" : [0.8104754686355591, 0.9358562231063843, 1.0000044107437134], "min" : [-0.8104754686355591, -0.9358562231063843, -1.0000044107437134], "name" : "NORMAL"}, {"bufferView" : 0, "byteOffset" : 6888, "componentType" : 5123, "count" : 72, "type" : "SCALAR", "max" : [65], "min" : [0]}, {"bufferView" : 8, "byteOffset" : 0, "componentType" : 5126, "count" : 66, "type" : "VEC3", "max" : [-175.4385223388672, 51.74600601196289, -63.1431999206543], "min" : [-196.1817626953125, 0.22576099634170532, -64.59174346923828], "name" : "POSITION"}, {"bufferView" : 8, "byteOffset" : 12, "componentType" : 5126, "count" : 66, "type" : "VEC2", "max" : [0.65625, -0.020934000611305237], "min" : [0.34375, -0.979066014289856], "name" : "TEXCOORD_0"}, {"bufferView" : 8, "byteOffset" : 20, "componentType" : 5126, "count" : 66, "type" : "VEC3", "max" : [0.8104754686355591, 0.9358562231063843, 1.0000044107437134], "min" : [-0.8104754686355591, -0.9358562231063843, -1.0000044107437134], "name" : "NORMAL"}, {"bufferView" : 0, "byteOffset" : 7032, "componentType" : 5123, "count" : 72, "type" : "SCALAR", "max" : [65], "min" : [0]}, {"bufferView" : 9, "byteOffset" : 0, "componentType" : 5126, "count" : 66, "type" : "VEC3", "max" : [-175.4385223388672, 51.74600601196289, -110.71394348144531], "min" : [-196.1817626953125, 0.22576099634170532, -112.16249084472656], "name" : "POSITION"}, {"bufferView" : 9, "byteOffset" : 12, "componentType" : 5126, "count" : 66, "type" : "VEC2", "max" : [0.65625, -0.020934000611305237], "min" : [0.34375, -0.979066014289856], "name" : "TEXCOORD_0"}, {"bufferView" : 9, "byteOffset" : 20, "componentType" : 5126, "count" : 66, "type" : "VEC3", "max" : [0.8104754686355591, 0.9358562231063843, 1.0000044107437134], "min" : [-0.8104754686355591, -0.9358562231063843, -1.0000044107437134], "name" : "NORMAL"}, {"bufferView" : 0, "byteOffset" : 7176, "componentType" : 5123, "count" : 36, "type" : "SCALAR", "max" : [29], "min" : [0]}, {"bufferView" : 10, "byteOffset" : 0, "componentType" : 5126, "count" : 30, "type" : "VEC3", "max" : [-167.0889129638672, 10.368611335754395, 49.40118408203125], "min" : [-183.2617645263672, 9.322490692138672, -436.82659912109375], "name" : "POSITION"}, {"bufferView" : 10, "byteOffset" : 12, "componentType" : 5126, "count" : 30, "type" : "VEC2", "max" : [0.875, -0], "min" : [0.125, -1], "name" : "TEXCOORD_0"}, {"bufferView" : 10, "byteOffset" : 20, "componentType" : 5126, "count" : 30, "type" : "VEC3", "max" : [1.0000044107437134, 1.0000044107437134, 1.0000044107437134], "min" : [-1.0000044107437134, -1.0000044107437134, -1.0000044107437134], "name" : "NORMAL"}, {"bufferView" : 0, "byteOffset" : 7248, "componentType" : 5123, "count" : 36, "type" : "SCALAR", "max" : [29], "min" : [0]}, {"bufferView" : 11, "byteOffset" : 0, "componentType" : 5126, "count" : 30, "type" : "VEC3", "max" : [-167.0889129638672, 10.368611335754395, 160.7120819091797], "min" : [-183.2617645263672, 9.322490692138672, 102.90676879882812], "name" : "POSITION"}, {"bufferView" : 11, "byteOffset" : 12, "componentType" : 5126, "count" : 30, "type" : "VEC2", "max" : [0.875, -0], "min" : [0.125, -1], "name" : "TEXCOORD_0"}, {"bufferView" : 11, "byteOffset" : 20, "componentType" : 5126, "count" : 30, "type" : "VEC3", "max" : [1.0000044107437134, 1.0000044107437134, 1.0000044107437134], "min" : [-1.0000044107437134, -1.0000044107437134, -1.0000044107437134], "name" : "NORMAL"}, {"bufferView" : 0, "byteOffset" : 7320, "componentType" : 5123, "count" : 72, "type" : "SCALAR", "max" : [65], "min" : [0]}, {"bufferView" : 12, "byteOffset" : 0, "componentType" : 5126, "count" : 66, "type" : "VEC3", "max" : [-175.4385223388672, 51.74600601196289, 148.61778259277344], "min" : [-196.1817626953125, 0.22576099634170532, 147.1692352294922], "name" : "POSITION"}, {"bufferView" : 12, "byteOffset" : 12, "componentType" : 5126, "count" : 66, "type" : "VEC2", "max" : [0.65625, -0.020934000611305237], "min" : [0.34375, -0.979066014289856], "name" : "TEXCOORD_0"}, {"bufferView" : 12, "byteOffset" : 20, "componentType" : 5126, "count" : 66, "type" : "VEC3", "max" : [0.8104754686355591, 0.9358562231063843, 1.0000044107437134], "min" : [-0.8104754686355591, -0.9358562231063843, -1.0000044107437134], "name" : "NORMAL"}, {"bufferView" : 0, "byteOffset" : 7464, "componentType" : 5123, "count" : 516, "type" : "SCALAR", "max" : [435], "min" : [0]}, {"bufferView" : 13, "byteOffset" : 0, "componentType" : 5126, "count" : 436, "type" : "VEC3", "max" : [-147.94129943847656, 59.09992980957031, -151.63450622558594], "min" : [-200.3987274169922, 47.94966125488281, -454.9035339355469], "name" : "POSITION"}, {"bufferView" : 13, "byteOffset" : 12, "componentType" : 5126, "count" : 436, "type" : "VEC2", "max" : [0.875, -0], "min" : [0.125, -1], "name" : "TEXCOORD_0"}, {"bufferView" : 13, "byteOffset" : 20, "componentType" : 5126, "count" : 436, "type" : "VEC3", "max" : [1.0000044107437134, 1.0000044107437134, 1.0000044107437134], "min" : [-1.0000044107437134, -1.0000044107437134, -1.0000044107437134], "name" : "NORMAL"}, {"bufferView" : 0, "byteOffset" : 8496, "componentType" : 5123, "count" : 72, "type" : "SCALAR", "max" : [65], "min" : [0]}, {"bufferView" : 14, "byteOffset" : 0, "componentType" : 5126, "count" : 66, "type" : "VEC3", "max" : [-175.4385223388672, 51.74600601196289, -154.04983520507812], "min" : [-196.1817626953125, 0.22576099634170532, -155.49838256835938], "name" : "POSITION"}, {"bufferView" : 14, "byteOffset" : 12, "componentType" : 5126, "count" : 66, "type" : "VEC2", "max" : [0.65625, -0.020934000611305237], "min" : [0.34375, -0.979066014289856], "name" : "TEXCOORD_0"}, {"bufferView" : 14, "byteOffset" : 20, "componentType" : 5126, "count" : 66, "type" : "VEC3", "max" : [0.8104754686355591, 0.9358562231063843, 1.0000044107437134], "min" : [-0.8104754686355591, -0.9358562231063843, -1.0000044107437134], "name" : "NORMAL"}, {"bufferView" : 0, "byteOffset" : 8640, "componentType" : 5123, "count" : 72, "type" : "SCALAR", "max" : [65], "min" : [0]}, {"bufferView" : 15, "byteOffset" : 0, "componentType" : 5126, "count" : 66, "type" : "VEC3", "max" : [-175.4385223388672, 51.74600601196289, -195.0189971923828], "min" : [-196.1817626953125, 0.22576099634170532, -196.46754455566406], "name" : "POSITION"}, {"bufferView" : 15, "byteOffset" : 12, "componentType" : 5126, "count" : 66, "type" : "VEC2", "max" : [0.65625, -0.020934000611305237], "min" : [0.34375, -0.979066014289856], "name" : "TEXCOORD_0"}, {"bufferView" : 15, "byteOffset" : 20, "componentType" : 5126, "count" : 66, "type" : "VEC3", "max" : [0.8104754686355591, 0.9358562231063843, 1.0000044107437134], "min" : [-0.8104754686355591, -0.9358562231063843, -1.0000044107437134], "name" : "NORMAL"}, {"bufferView" : 0, "byteOffset" : 8784, "componentType" : 5123, "count" : 72, "type" : "SCALAR", "max" : [65], "min" : [0]}, {"bufferView" : 16, "byteOffset" : 0, "componentType" : 5126, "count" : 66, "type" : "VEC3", "max" : [-175.4385223388672, 51.74600601196289, -254.30093383789062], "min" : [-196.1817626953125, 0.22576099634170532, -255.7494659423828], "name" : "POSITION"}, {"bufferView" : 16, "byteOffset" : 12, "componentType" : 5126, "count" : 66, "type" : "VEC2", "max" : [0.65625, -0.020934000611305237], "min" : [0.34375, -0.979066014289856], "name" : "TEXCOORD_0"}, {"bufferView" : 16, "byteOffset" : 20, "componentType" : 5126, "count" : 66, "type" : "VEC3", "max" : [0.8104754686355591, 0.9358562231063843, 1.0000044107437134], "min" : [-0.8104754686355591, -0.9358562231063843, -1.0000044107437134], "name" : "NORMAL"}, {"bufferView" : 0, "byteOffset" : 8928, "componentType" : 5123, "count" : 72, "type" : "SCALAR", "max" : [65], "min" : [0]}, {"bufferView" : 17, "byteOffset" : 0, "componentType" : 5126, "count" : 66, "type" : "VEC3", "max" : [-175.4385223388672, 51.74600601196289, -311.86181640625], "min" : [-196.1817626953125, 0.22576099634170532, -313.31036376953125], "name" : "POSITION"}, {"bufferView" : 17, "byteOffset" : 12, "componentType" : 5126, "count" : 66, "type" : "VEC2", "max" : [0.65625, -0.020934000611305237], "min" : [0.34375, -0.979066014289856], "name" : "TEXCOORD_0"}, {"bufferView" : 17, "byteOffset" : 20, "componentType" : 5126, "count" : 66, "type" : "VEC3", "max" : [0.8104754686355591, 0.9358562231063843, 1.0000044107437134], "min" : [-0.8104754686355591, -0.9358562231063843, -1.0000044107437134], "name" : "NORMAL"}, {"bufferView" : 0, "byteOffset" : 9072, "componentType" : 5123, "count" : 72, "type" : "SCALAR", "max" : [65], "min" : [0]}, {"bufferView" : 18, "byteOffset" : 0, "componentType" : 5126, "count" : 66, "type" : "VEC3", "max" : [-175.4385223388672, 51.74600601196289, -366.9254150390625], "min" : [-196.1817626953125, 0.22576099634170532, -368.37396240234375], "name" : "POSITION"}, {"bufferView" : 18, "byteOffset" : 12, "componentType" : 5126, "count" : 66, "type" : "VEC2", "max" : [0.65625, -0.020934000611305237], "min" : [0.34375, -0.979066014289856], "name" : "TEXCOORD_0"}, {"bufferView" : 18, "byteOffset" : 20, "componentType" : 5126, "count" : 66, "type" : "VEC3", "max" : [0.8104754686355591, 0.9358562231063843, 1.0000044107437134], "min" : [-0.8104754686355591, -0.9358562231063843, -1.0000044107437134], "name" : "NORMAL"}, {"bufferView" : 0, "byteOffset" : 9216, "componentType" : 5123, "count" : 72, "type" : "SCALAR", "max" : [65], "min" : [0]}, {"bufferView" : 19, "byteOffset" : 0, "componentType" : 5126, "count" : 66, "type" : "VEC3", "max" : [-175.4385223388672, 51.74600601196289, -414.13525390625], "min" : [-196.1817626953125, 0.22576099634170532, -415.58380126953125], "name" : "POSITION"}, {"bufferView" : 19, "byteOffset" : 12, "componentType" : 5126, "count" : 66, "type" : "VEC2", "max" : [0.65625, -0.020934000611305237], "min" : [0.34375, -0.979066014289856], "name" : "TEXCOORD_0"}, {"bufferView" : 19, "byteOffset" : 20, "componentType" : 5126, "count" : 66, "type" : "VEC3", "max" : [0.8104754686355591, 0.9358562231063843, 1.0000044107437134], "min" : [-0.8104754686355591, -0.9358562231063843, -1.0000044107437134], "name" : "NORMAL"}, {"bufferView" : 0, "byteOffset" : 9360, "componentType" : 5123, "count" : 756, "type" : "SCALAR", "max" : [629], "min" : [0]}, {"bufferView" : 20, "byteOffset" : 0, "componentType" : 5126, "count" : 630, "type" : "VEC3", "max" : [-147.94131469726562, 49.27194595336914, -258.1429443359375], "min" : [-152.15928649902344, -1.9999999949504854E-06, -323.418212890625], "name" : "POSITION"}, {"bufferView" : 20, "byteOffset" : 12, "componentType" : 5126, "count" : 630, "type" : "VEC2", "max" : [0.8749989867210388, -0], "min" : [0.1250009983778, -1], "name" : "TEXCOORD_0"}, {"bufferView" : 20, "byteOffset" : 20, "componentType" : 5126, "count" : 630, "type" : "VEC3", "max" : [1.0000044107437134, 1.0000044107437134, 1.0000044107437134], "min" : [-1.0000044107437134, -1.0000044107437134, -1.0000044107437134], "name" : "NORMAL"}, {"bufferView" : 0, "byteOffset" : 10872, "componentType" : 5123, "count" : 2328, "type" : "SCALAR", "max" : [1942], "min" : [0]}, {"bufferView" : 21, "byteOffset" : 0, "componentType" : 5126, "count" : 1943, "type" : "VEC3", "max" : [186.2919464111328, 278.4742431640625, 148.27586364746094], "min" : [-188.26849365234375, 72.77622985839844, -430.5184020996094], "name" : "POSITION"}, {"bufferView" : 21, "byteOffset" : 12, "componentType" : 5126, "count" : 1943, "type" : "VEC2", "max" : [0.875, -0], "min" : [0.12488599866628647, -1], "name" : "TEXCOORD_0"}, {"bufferView" : 21, "byteOffset" : 20, "componentType" : 5126, "count" : 1943, "type" : "VEC3", "max" : [1.0000044107437134, 1.0000044107437134, 1.0000044107437134], "min" : [-1.0000044107437134, -1.0000044107437134, -1.0000044107437134], "name" : "NORMAL"}], "asset" : {"generator" : "Aspose.3D 22.1", "version" : "2.0"}, "buffers" : [{"uri" : "data:application/octet-stream;base64,", "byteLength" : 264064}], "bufferViews" : [{"buffer" : 0, "byteOffset" : 0, "byteLength" : 15528, "target" : 34963}, {"buffer" : 0, "byteOffset" : 15532, "byteLength" : 3072, "byteStride" : 32, "target" : 34962}, {"buffer" : 0, "byteOffset" : 18608, "byteLength" : 59520, "byteStride" : 32, "target" : 34962}, {"buffer" : 0, "byteOffset" : 78132, "byteLength" : 24192, "byteStride" : 32, "target" : 34962}, {"buffer" : 0, "byteOffset" : 102328, "byteLength" : 16512, "byteStride" : 32, "target" : 34962}, {"buffer" : 0, "byteOffset" : 118844, "byteLength" : 2304, "byteStride" : 32, "target" : 34962}, {"buffer" : 0, "byteOffset" : 121152, "byteLength" : 2304, "byteStride" : 32, "target" : 34962}, {"buffer" : 0, "byteOffset" : 123460, "byteLength" : 2304, "byteStride" : 32, "target" : 34962}, {"buffer" : 0, "byteOffset" : 125768, "byteLength" : 2304, "byteStride" : 32, "target" : 34962}, {"buffer" : 0, "byteOffset" : 128076, "byteLength" : 2304, "byteStride" : 32, "target" : 34962}, {"buffer" : 0, "byteOffset" : 130384, "byteLength" : 1152, "byteStride" : 32, "target" : 34962}, {"buffer" : 0, "byteOffset" : 131540, "byteLength" : 1152, "byteStride" : 32, "target" : 34962}, {"buffer" : 0, "byteOffset" : 132696, "byteLength" : 2304, "byteStride" : 32, "target" : 34962}, {"buffer" : 0, "byteOffset" : 135004, "byteLength" : 16512, "byteStride" : 32, "target" : 34962}, {"buffer" : 0, "byteOffset" : 151520, "byteLength" : 2304, "byteStride" : 32, "target" : 34962}, {"buffer" : 0, "byteOffset" : 153828, "byteLength" : 2304, "byteStride" : 32, "target" : 34962}, {"buffer" : 0, "byteOffset" : 156136, "byteLength" : 2304, "byteStride" : 32, "target" : 34962}, {"buffer" : 0, "byteOffset" : 158444, "byteLength" : 2304, "byteStride" : 32, "target" : 34962}, {"buffer" : 0, "byteOffset" : 160752, "byteLength" : 2304, "byteStride" : 32, "target" : 34962}, {"buffer" : 0, "byteOffset" : 163060, "byteLength" : 2304, "byteStride" : 32, "target" : 34962}, {"buffer" : 0, "byteOffset" : 165368, "byteLength" : 24192, "byteStride" : 32, "target" : 34962}, {"buffer" : 0, "byteOffset" : 189564, "byteLength" : 74496, "byteStride" : 32, "target" : 34962}], "meshes" : [{"primitives" : [{"attributes" : {"POSITION" : 1, "TEXCOORD_0" : 2, "NORMAL" : 3}, "indices" : 0, "mode" : 4}], "name" : ""}, {"primitives" : [{"attributes" : {"POSITION" : 5, "TEXCOORD_0" : 6, "NORMAL" : 7}, "indices" : 4, "mode" : 4}], "name" : ""}, {"primitives" : [{"attributes" : {"POSITION" : 9, "TEXCOORD_0" : 10, "NORMAL" : 11}, "indices" : 8, "mode" : 4}], "name" : ""}, {"primitives" : [{"attributes" : {"POSITION" : 13, "TEXCOORD_0" : 14, "NORMAL" : 15}, "indices" : 12, "mode" : 4}], "name" : ""}, {"primitives" : [{"attributes" : {"POSITION" : 17, "TEXCOORD_0" : 18, "NORMAL" : 19}, "indices" : 16, "mode" : 4}], "name" : ""}, {"primitives" : [{"attributes" : {"POSITION" : 21, "TEXCOORD_0" : 22, "NORMAL" : 23}, "indices" : 20, "mode" : 4}], "name" : ""}, {"primitives" : [{"attributes" : {"POSITION" : 25, "TEXCOORD_0" : 26, "NORMAL" : 27}, "indices" : 24, "mode" : 4}], "name" : ""}, {"primitives" : [{"attributes" : {"POSITION" : 29, "TEXCOORD_0" : 30, "NORMAL" : 31}, "indices" : 28, "mode" : 4}], "name" : ""}, {"primitives" : [{"attributes" : {"POSITION" : 33, "TEXCOORD_0" : 34, "NORMAL" : 35}, "indices" : 32, "mode" : 4}], "name" : ""}, {"primitives" : [{"attributes" : {"POSITION" : 37, "TEXCOORD_0" : 38, "NORMAL" : 39}, "indices" : 36, "mode" : 4}], "name" : ""}, {"primitives" : [{"attributes" : {"POSITION" : 41, "TEXCOORD_0" : 42, "NORMAL" : 43}, "indices" : 40, "mode" : 4}], "name" : ""}, {"primitives" : [{"attributes" : {"POSITION" : 45, "TEXCOORD_0" : 46, "NORMAL" : 47}, "indices" : 44, "mode" : 4}], "name" : ""}, {"primitives" : [{"attributes" : {"POSITION" : 49, "TEXCOORD_0" : 50, "NORMAL" : 51}, "indices" : 48, "mode" : 4}], "name" : ""}, {"primitives" : [{"attributes" : {"POSITION" : 53, "TEXCOORD_0" : 54, "NORMAL" : 55}, "indices" : 52, "mode" : 4}], "name" : ""}, {"primitives" : [{"attributes" : {"POSITION" : 57, "TEXCOORD_0" : 58, "NORMAL" : 59}, "indices" : 56, "mode" : 4}], "name" : ""}, {"primitives" : [{"attributes" : {"POSITION" : 61, "TEXCOORD_0" : 62, "NORMAL" : 63}, "indices" : 60, "mode" : 4}], "name" : ""}, {"primitives" : [{"attributes" : {"POSITION" : 65, "TEXCOORD_0" : 66, "NORMAL" : 67}, "indices" : 64, "mode" : 4}], "name" : ""}, {"primitives" : [{"attributes" : {"POSITION" : 69, "TEXCOORD_0" : 70, "NORMAL" : 71}, "indices" : 68, "mode" : 4}], "name" : ""}, {"primitives" : [{"attributes" : {"POSITION" : 73, "TEXCOORD_0" : 74, "NORMAL" : 75}, "indices" : 72, "mode" : 4}], "name" : ""}, {"primitives" : [{"attributes" : {"POSITION" : 77, "TEXCOORD_0" : 78, "NORMAL" : 79}, "indices" : 76, "mode" : 4}], "name" : ""}, {"primitives" : [{"attributes" : {"POSITION" : 81, "TEXCOORD_0" : 82, "NORMAL" : 83}, "indices" : 80, "mode" : 4}], "name" : ""}], "nodes" : [{"mesh" : 0, "name" : "ground_GEO"}, {"mesh" : 1, "name" : "baseLassonde_GEO"}, {"mesh" : 2, "name" : "door_GEO"}, {"mesh" : 3, "name" : "outsideRoof_GEO"}, {"mesh" : 4, "name" : "pCylinder1"}, {"mesh" : 5, "name" : "pCylinder2"}, {"mesh" : 6, "name" : "pCylinder3"}, {"mesh" : 7, "name" : "pCylinder4"}, {"mesh" : 8, "name" : "pCylinder5"}, {"mesh" : 9, "name" : "pCube1"}, {"mesh" : 10, "name" : "pCube2"}, {"mesh" : 11, "name" : "pCylinder6"}, {"mesh" : 12, "name" : "outsideRoof2_GEO"}, {"mesh" : 13, "name" : "pCylinder7"}, {"mesh" : 14, "name" : "pCylinder8"}, {"mesh" : 15, "name" : "pCylinder9"}, {"mesh" : 16, "name" : "pCylinder10"}, {"mesh" : 17, "name" : "pCylinder11"}, {"mesh" : 18, "name" : "pCylinder12"}, {"mesh" : 19, "name" : "door1_GEO"}, {"mesh" : 20, "name" : "topOfBuilding_GEO"}], "scene" : 0, "scenes" : [{"nodes" : [0, 1, 2, 3, 4, 5, 6, 7, 8, 9, 10, 11, 12, 13, 14, 15, 16, 17, 18, 19, 20]}]}